<svg xmlns="http://www.w3.org/2000/svg" xmlns:xlink="http://www.w3.org/1999/xlink" width="114" zoomAndPan="magnify" viewBox="0 0 85.5 30.000001" height="40" preserveAspectRatio="xMidYMid meet" version="1.0"><defs><g/></defs><g fill="#E43387" fill-opacity="1"><g transform="translate(7.187373, 23.389804)"><g><path d="M 8.570312 0.316406 C 12.730469 0.316406 16.347656 -1.875 15.839844 -5.839844 C 15.398438 -10.539062 5.144531 -10.890625 5.144531 -15.207031 C 5.144531 -16.921875 6.601562 -17.585938 8.285156 -17.585938 C 10.160156 -17.585938 11.398438 -16.792969 11.398438 -15.523438 C 11.398438 -13.9375 10.316406 -13.808594 10.316406 -13.808594 C 10.316406 -12.699219 11.207031 -11.683594 12.570312 -11.683594 C 13.652344 -11.683594 14.476562 -12.382812 14.476562 -13.492188 C 14.476562 -16.347656 11.429688 -18.03125 8.222656 -18.03125 C 4.285156 -18.03125 0.953125 -16.253906 1.398438 -12.285156 C 1.96875 -7.109375 12.09375 -6.476562 12.09375 -2.476562 C 12.09375 -0.539062 9.714844 -0.09375 8.382812 -0.09375 C 6.636719 -0.09375 4.570312 -0.855469 4.570312 -2.699219 C 4.570312 -2.855469 4.570312 -3.015625 4.601562 -3.207031 C 4.761719 -4.191406 5.714844 -4.316406 5.714844 -4.316406 C 5.714844 -5.621094 4.699219 -6.761719 3.144531 -6.761719 C 1.90625 -6.761719 0.953125 -5.9375 0.953125 -4.667969 C 0.953125 -1.554688 4.667969 0.316406 8.570312 0.316406 Z M 8.570312 0.316406 "/></g></g></g><g fill="#E43387" fill-opacity="1"><g transform="translate(24.042715, 23.389804)"><g><path d="M 1.585938 0 L 6.222656 0 L 6.222656 -10 C 6.601562 -10.539062 7.492188 -11.460938 7.746094 -11.683594 C 8.921875 -12.699219 10.09375 -12.507812 10.09375 -10.761719 L 10.09375 0 L 14.730469 0 L 14.730469 -10.667969 C 14.730469 -12.09375 13.269531 -13.460938 11.078125 -13.460938 C 8.953125 -13.460938 7.175781 -11.777344 6.222656 -10.539062 L 6.222656 -19.683594 L 1.585938 -19.683594 Z M 1.585938 0 "/></g></g></g><g fill="#E43387" fill-opacity="1"><g transform="translate(40.358431, 23.389804)"><g><path d="M 7.839844 0.316406 C 11.238281 0.316406 13.332031 -2.03125 14 -5.109375 L 13.652344 -5.175781 C 12.984375 -3.175781 11.460938 -1.777344 9.683594 -1.777344 C 7.269531 -1.777344 5.523438 -4.03125 5.363281 -8.0625 L 13.621094 -8.0625 C 13.621094 -11.398438 11.238281 -13.300781 7.839844 -13.300781 C 3.96875 -13.300781 0.792969 -10.253906 0.792969 -6.507812 C 0.792969 -2.730469 3.96875 0.316406 7.839844 0.316406 Z M 5.363281 -8.382812 C 5.398438 -10.953125 6.414062 -12.953125 7.652344 -12.953125 C 8.890625 -12.953125 9.367188 -10.953125 9.367188 -8.382812 Z M 5.363281 -8.382812 "/></g></g></g><g fill="#E43387" fill-opacity="1"><g transform="translate(55.150502, 23.389804)"><g><path d="M 0 -12.636719 L 2 -12.636719 L 2 0 L 6.636719 0 L 6.636719 -12.636719 L 8.570312 -12.636719 L 8.570312 -12.953125 L 6.636719 -12.953125 L 6.636719 -18.0625 C 6.636719 -19.554688 7.554688 -20.351562 8.730469 -20.351562 C 9.875 -20.351562 10.792969 -19.554688 10.792969 -18.0625 C 10.792969 -16.128906 9.460938 -15.777344 9.460938 -15.777344 C 9.460938 -14.984375 10.09375 -13.714844 11.398438 -13.714844 C 13.269531 -13.714844 14.285156 -15.078125 14.285156 -16.605469 C 14.285156 -18.890625 11.652344 -20.699219 8.699219 -20.699219 C 6.667969 -20.699219 4.984375 -20.160156 3.746094 -19.144531 C 2.667969 -18.253906 2 -17.015625 2 -15.429688 L 2 -12.953125 L 0 -12.953125 Z M 0 -12.636719 "/></g></g></g><g fill="#E43387" fill-opacity="1"><g transform="translate(70.228263, 23.389804)"><g><path d="M 3.808594 0.316406 C 5.015625 0.316406 6 -0.667969 6 -1.90625 C 6 -3.144531 5.015625 -4.128906 3.808594 -4.128906 C 2.570312 -4.128906 1.585938 -3.144531 1.585938 -1.90625 C 1.585938 -0.667969 2.570312 0.316406 3.808594 0.316406 Z M 3.808594 0.316406 "/></g></g></g></svg>